<?xml version="1.0" standalone="no"?>
<!DOCTYPE svg PUBLIC "-//W3C//DTD SVG 20010904//EN"
 "http://www.w3.org/TR/2001/REC-SVG-20010904/DTD/svg10.dtd">
<svg version="1.0" xmlns="http://www.w3.org/2000/svg"
 width="16.000000pt" height="16.000000pt" viewBox="0 0 16.000000 16.000000"
 preserveAspectRatio="xMidYMid meet">
<metadata>
Created by potrace 1.11, written by Peter Selinger 2001-2013
</metadata>
<g transform="translate(0.000000,16.000000) scale(0.006987,-0.006987)"
fill="#000000" stroke="none">
<path d="M2054 2140 c-31 -12 -82 -75 -95 -118 -8 -28 -8 -49 0 -79 38 -141
202 -179 299 -69 29 34 32 42 32 105 0 79 -22 122 -80 152 -36 20 -118 25
-156 9z m144 -40 c41 -25 77 -99 67 -138 -19 -79 -91 -131 -160 -118 -20 4
-53 22 -72 40 -68 62 -53 179 30 220 44 21 95 20 135 -4z"/>
<path d="M2052 1983 c2 -79 6 -98 18 -98 10 0 16 12 18 38 3 32 7 37 28 37 13
0 24 -4 24 -8 0 -4 13 -23 29 -42 23 -28 32 -32 42 -23 9 10 6 20 -16 48 l-27
37 21 14 c26 19 27 48 1 74 -16 16 -33 20 -80 20 l-61 0 3 -97z m107 58 c25
-16 4 -41 -34 -41 -31 0 -35 3 -35 25 0 21 5 25 28 25 15 0 33 -4 41 -9z"/>
<path d="M911 2104 c-231 -39 -452 -149 -620 -309 -125 -120 -204 -244 -256
-405 -24 -72 -29 -107 -32 -225 -5 -159 6 -231 56 -360 95 -248 345 -482 623
-585 149 -54 204 -63 423 -67 206 -4 212 -4 325 25 204 52 351 127 501 255
136 117 255 302 305 477 29 101 27 348 -4 454 -110 378 -463 671 -896 741
-112 18 -313 18 -425 -1z m454 -84 c404 -83 705 -352 791 -706 23 -92 23 -276
0 -368 -36 -151 -131 -310 -252 -427 -323 -308 -834 -388 -1259 -197 -489 221
-696 732 -475 1172 92 184 240 330 435 426 140 70 232 96 440 124 57 8 230 -5
320 -24z"/>
<path d="M965 1934 c-105 -19 -101 -16 -124 -70 -103 -232 -143 -678 -100
-1109 16 -158 72 -379 102 -403 23 -18 187 -43 187 -29 0 2 7 73 15 158 16
167 50 319 88 402 l25 52 17 -40 c28 -65 54 -207 72 -404 l17 -183 73 6 c119
11 128 16 157 99 72 203 99 405 99 742 0 266 -15 427 -54 580 -18 71 -56 175
-64 175 -2 0 -39 7 -82 15 -79 15 -143 19 -143 10 0 -3 16 -51 35 -105 62
-181 77 -283 81 -570 3 -178 1 -250 -6 -240 -6 8 -36 57 -68 109 -31 51 -73
112 -94 135 l-36 41 -27 -25 c-37 -34 -105 -123 -150 -196 l-37 -59 6 175 c10
285 40 487 92 635 38 107 39 115 18 114 -11 0 -55 -7 -99 -15z"/>
<path d="M715 1861 c-110 -53 -215 -130 -310 -226 -94 -96 -174 -210 -159
-230 5 -7 34 -46 65 -86 103 -134 173 -312 184 -463 l5 -71 -50 100 c-28 56
-57 133 -66 175 -9 41 -18 81 -20 88 -2 8 -31 12 -99 12 l-95 0 0 -47 c1 -83
38 -222 84 -318 55 -111 124 -196 218 -270 79 -62 251 -151 269 -139 9 5 10
46 6 153 -13 311 -87 585 -219 804 -44 74 -48 84 -36 105 20 39 124 129 188
164 52 29 61 38 66 68 7 45 53 182 65 195 13 13 11 25 -3 25 -7 0 -49 -18 -93
-39z"/>
<path d="M1520 1896 c0 -2 14 -33 30 -70 150 -330 151 -1077 3 -1409 -14 -31
-24 -60 -21 -63 8 -7 170 89 236 140 214 165 332 388 332 626 0 255 -122 480
-355 653 -86 64 -225 140 -225 123z m406 -683 c29 -109 0 -245 -72 -328 -14
-17 -23 -22 -20 -13 25 82 33 403 11 488 -4 16 6 5 28 -28 19 -29 43 -83 53
-119z"/>
</g>
</svg>
